<?xml version="1.0" encoding="UTF-8"?>
<svg width="16px" height="12px" viewBox="0 0 16 12" version="1.1" xmlns="http://www.w3.org/2000/svg" xmlns:xlink="http://www.w3.org/1999/xlink">
    <!-- Generator: Sketch 52.5 (67469) - http://www.bohemiancoding.com/sketch -->
    <title>icon-eye</title>
    <desc>Created with Sketch.</desc>
    <g id="Page-1" stroke="none" stroke-width="1" fill="none" fill-rule="evenodd">
        <g id="Artboard" fill="#000000" fill-rule="nonzero">
            <g id="icon-eye">
                <path d="M7.98253582,11.559633 C3.55310785,11.559633 1.09437197,8.00011189 0.274084921,6.47185662 C-0.0913616404,5.69667835 -0.0913616404,5.86295468 0.274084921,5.0877764 C1.09437197,3.55952114 3.71361842,0 7.98253582,0 C12.2514532,0 14.8714019,3.55952114 15.6909867,5.0877764 C16.067092,5.88556374 16.067092,5.67406928 15.6909867,6.47185662 C14.8714019,8.01773328 12.4119637,11.559633 7.98253582,11.559633 Z M7.98288697,9.30775648 C9.93131439,9.30775648 11.5108269,7.72824396 11.5108269,5.77981651 C11.5108269,3.83138906 9.93131439,2.25187655 7.98288697,2.25187655 C6.03445952,2.25187655 4.45494701,3.83138906 4.45494701,5.77981651 C4.45494701,7.72824396 6.03445952,9.30775648 7.98288697,9.30775648 Z M7.98288697,7.05587989 C7.27813662,7.05587989 6.70682356,6.48456686 6.70682356,5.77981651 C6.70682356,5.07506617 7.27813662,4.50375314 7.98288697,4.50375314 C8.68763732,4.50375314 9.25895035,5.07506617 9.25895035,5.77981651 C9.25895035,6.48456686 8.68763732,7.05587989 7.98288697,7.05587989 Z" id="Combined-Shape"></path>
            </g>
        </g>
    </g>
</svg>