<?xml version="1.0" encoding="UTF-8"?>
<svg width="440px" height="320px" viewBox="0 0 440 320" version="1.1" xmlns="http://www.w3.org/2000/svg" xmlns:xlink="http://www.w3.org/1999/xlink">
    <!-- Generator: Sketch 52.5 (67469) - http://www.bohemiancoding.com/sketch -->
    <title>Artboard Copy 21</title>
    <desc>Created with Sketch.</desc>
    <g id="Artboard-Copy-21" stroke="none" stroke-width="1" fill="none" fill-rule="evenodd">
        <path d="M219.391148,318 C98.7630103,318 31.8034088,221.003049 9.46424905,179.358093 C-0.488083015,158.234485 -0.488083015,162.765515 9.46424905,141.641907 C31.8034088,99.9969512 103.13425,3 219.391148,3 C335.648046,3 406.998013,99.9969512 429.318047,141.641907 C439.560651,163.381612 439.560651,157.618388 429.318047,179.358093 C406.998013,221.483232 340.019285,318 219.391148,318 Z M219.400711,256.636364 C272.462906,256.636364 315.478315,213.594648 315.478315,160.5 C315.478315,107.405352 272.462906,64.3636364 219.400711,64.3636364 C166.338515,64.3636364 123.323107,107.405352 123.323107,160.5 C123.323107,213.594648 166.338515,256.636364 219.400711,256.636364 Z M219.400711,195.272727 C200.208002,195.272727 184.649237,179.704447 184.649237,160.5 C184.649237,141.295553 200.208002,125.727273 219.400711,125.727273 C238.59342,125.727273 254.152185,141.295553 254.152185,160.5 C254.152185,179.704447 238.59342,195.272727 219.400711,195.272727 Z" id="Combined-Shape" fill="#000000"></path>
    </g>
</svg>